<svg width="23" height="23" viewBox="0 0 23 23" fill="none" xmlns="http://www.w3.org/2000/svg">
<path d="M11.2925 7.55136C9.27263 7.55136 7.62429 9.19969 7.62429 11.2195C7.62429 13.2393 9.27263 14.8877 11.2925 14.8877C13.3123 14.8877 14.9606 13.2393 14.9606 11.2195C14.9606 9.19969 13.3123 7.55136 11.2925 7.55136ZM22.2942 11.2195C22.2942 9.70052 22.3079 8.19529 22.2226 6.67904C22.1373 4.91788 21.7356 3.35485 20.4477 2.06701C19.1571 0.77641 17.5968 0.377398 15.8357 0.292092C14.3167 0.206786 12.8115 0.220545 11.2952 0.220545C9.77621 0.220545 8.27097 0.206786 6.75472 0.292092C4.99357 0.377398 3.43054 0.779162 2.14269 2.06701C0.852094 3.35761 0.453082 4.91788 0.367776 6.67904C0.28247 8.19804 0.296229 9.70328 0.296229 11.2195C0.296229 12.7358 0.28247 14.2438 0.367776 15.76C0.453082 17.5212 0.854846 19.0842 2.14269 20.372C3.43329 21.6626 4.99357 22.0616 6.75472 22.147C8.27372 22.2323 9.77896 22.2185 11.2952 22.2185C12.8142 22.2185 14.3194 22.2323 15.8357 22.147C17.5968 22.0616 19.1599 21.6599 20.4477 20.372C21.7383 19.0814 22.1373 17.5212 22.2226 15.76C22.3107 14.2438 22.2942 12.7385 22.2942 11.2195ZM11.2925 16.8635C8.16915 16.8635 5.6485 14.3428 5.6485 11.2195C5.6485 8.09622 8.16915 5.57556 11.2925 5.57556C14.4158 5.57556 16.9364 8.09622 16.9364 11.2195C16.9364 14.3428 14.4158 16.8635 11.2925 16.8635ZM17.1676 6.66253C16.4383 6.66253 15.8494 6.07364 15.8494 5.34441C15.8494 4.61518 16.4383 4.0263 17.1676 4.0263C17.8968 4.0263 18.4857 4.61518 18.4857 5.34441C18.4859 5.51757 18.452 5.68907 18.3858 5.84909C18.3196 6.00911 18.2225 6.1545 18.1001 6.27695C17.9777 6.39939 17.8323 6.49647 17.6722 6.56264C17.5122 6.6288 17.3407 6.66274 17.1676 6.66253Z" fill="#131121"/>
</svg>
