<svg width="23" height="23" viewBox="0 0 23 23" fill="none" xmlns="http://www.w3.org/2000/svg">
<path fill-rule="evenodd" clip-rule="evenodd" d="M0.440918 2.05773C0.440918 1.57026 0.634564 1.10276 0.979256 0.758067C1.32395 0.413375 1.79145 0.219729 2.27892 0.219729H20.6009C20.8425 0.219334 21.0818 0.266592 21.3051 0.358796C21.5283 0.450999 21.7313 0.586339 21.9022 0.757065C22.0731 0.927792 22.2086 1.13055 22.3011 1.35374C22.3935 1.57693 22.441 1.81615 22.4409 2.05773V20.3797C22.4412 20.6214 22.3938 20.8607 22.3015 21.0839C22.2092 21.3072 22.0737 21.5101 21.9029 21.681C21.7321 21.8519 21.5293 21.9875 21.3061 22.0799C21.0828 22.1723 20.8435 22.2199 20.6019 22.2197H2.27892C2.03746 22.2197 1.79838 22.1722 1.57531 22.0797C1.35225 21.9873 1.14959 21.8518 0.978902 21.681C0.808215 21.5103 0.67285 21.3075 0.580541 21.0844C0.488231 20.8613 0.440787 20.6222 0.440918 20.3807V2.05773ZM9.14892 8.60773H12.1279V10.1037C12.5579 9.24373 13.6579 8.46973 15.3109 8.46973C18.4799 8.46973 19.2309 10.1827 19.2309 13.3257V19.1477H16.0239V14.0417C16.0239 12.2517 15.5939 11.2417 14.5019 11.2417C12.9869 11.2417 12.3569 12.3307 12.3569 14.0417V19.1477H9.14892V8.60773ZM3.64892 19.0107H6.85692V8.46973H3.64892V19.0097V19.0107ZM7.31592 5.03173C7.32197 5.3064 7.27309 5.57952 7.17216 5.83504C7.07123 6.09057 6.92027 6.32336 6.72815 6.51976C6.53603 6.71616 6.30662 6.8722 6.05337 6.97874C5.80013 7.08527 5.52816 7.14015 5.25342 7.14015C4.97868 7.14015 4.70671 7.08527 4.45346 6.97874C4.20022 6.8722 3.97081 6.71616 3.77869 6.51976C3.58657 6.32336 3.43561 6.09057 3.33468 5.83504C3.23375 5.57952 3.18487 5.3064 3.19092 5.03173C3.20279 4.49258 3.4253 3.97952 3.8108 3.60242C4.1963 3.22531 4.71414 3.01415 5.25342 3.01415C5.79269 3.01415 6.31053 3.22531 6.69603 3.60242C7.08153 3.97952 7.30405 4.49258 7.31592 5.03173Z" fill="#131121"/>
</svg>
