<svg width="28" height="23" viewBox="0 0 28 23" fill="none" xmlns="http://www.w3.org/2000/svg">
<path d="M27.5874 2.81373C26.5903 3.25554 25.5192 3.55407 24.3932 3.689C25.555 2.99379 26.4243 1.8996 26.8387 0.610609C25.7471 1.25899 24.5524 1.71539 23.3065 1.95994C22.4687 1.0654 21.359 0.472483 20.1497 0.273244C18.9404 0.0740055 17.6992 0.279594 16.6187 0.85809C15.5382 1.43659 14.6789 2.35562 14.1742 3.47252C13.6696 4.58941 13.5478 5.84167 13.8278 7.03488C11.6159 6.92382 9.45213 6.34893 7.47684 5.3475C5.50155 4.34607 3.75891 2.94049 2.362 1.22199C1.88436 2.04592 1.60971 3.0012 1.60971 4.01858C1.60918 4.93445 1.83472 5.83629 2.26632 6.64409C2.69793 7.45188 3.32225 8.14066 4.08389 8.6493C3.20059 8.6212 2.33677 8.38252 1.56434 7.95314V8.02479C1.56425 9.30933 2.00858 10.5543 2.82194 11.5486C3.63531 12.5428 4.7676 13.225 6.0267 13.4794C5.20728 13.7012 4.34819 13.7339 3.5143 13.575C3.86955 14.6803 4.56153 15.6468 5.49337 16.3392C6.42521 17.0317 7.55027 17.4154 8.71104 17.4367C6.74057 18.9836 4.30705 19.8226 1.80196 19.8189C1.35821 19.8191 0.914836 19.7931 0.474121 19.7413C3.01693 21.3763 5.97695 22.2439 9.00001 22.2406C19.2335 22.2406 24.8278 13.7648 24.8278 6.41394C24.8278 6.17512 24.8219 5.93392 24.8111 5.6951C25.8993 4.90815 26.8386 3.93367 27.585 2.81731L27.5874 2.81373Z" fill="#131121"/>
</svg>
