<svg width="39" height="29" viewBox="0 0 39 29" fill="none" xmlns="http://www.w3.org/2000/svg">
<path d="M32.8644 2.44237C30.4195 1.33975 27.7988 0.524773 25.0582 0.061355C25.0338 0.0566695 25.0086 0.059689 24.9859 0.0699959C24.9633 0.0803027 24.9445 0.0973871 24.932 0.118883C24.5964 0.708543 24.2225 1.47718 23.9604 2.08442C21.0538 1.65014 18.0988 1.65014 15.1922 2.08442C14.9003 1.41144 14.5712 0.755243 14.2063 0.118883C14.1939 0.0971224 14.1752 0.0796516 14.1526 0.0688018C14.1301 0.057952 14.1047 0.0542391 14.08 0.0581588C11.3411 0.521577 8.72034 1.33655 6.27381 2.44077C6.25276 2.4496 6.23492 2.46465 6.22267 2.48391C1.24972 9.79474 -0.113373 16.925 0.556186 23.9657C0.558049 23.983 0.563402 23.9997 0.571918 24.0148C0.580435 24.0299 0.591937 24.0431 0.605724 24.0536C3.50831 26.1669 6.74576 27.7767 10.1825 28.8157C10.2065 28.823 10.2321 28.823 10.256 28.8156C10.28 28.8082 10.3011 28.7937 10.3167 28.7741C11.0563 27.7851 11.7116 26.7358 12.2759 25.6373C12.2837 25.6222 12.2882 25.6057 12.2891 25.5888C12.29 25.5719 12.2872 25.555 12.281 25.5392C12.2748 25.5235 12.2653 25.5092 12.2531 25.4975C12.2409 25.4857 12.2263 25.4767 12.2104 25.4711C11.1781 25.0823 10.1778 24.6132 9.21891 24.068C9.20168 24.0582 9.18716 24.0442 9.17666 24.0274C9.16615 24.0106 9.15999 23.9914 9.15872 23.9716C9.15746 23.9518 9.16112 23.932 9.1694 23.914C9.17767 23.8959 9.19029 23.8802 9.20613 23.8683C9.40748 23.7197 9.60882 23.5647 9.80058 23.4096C9.81784 23.3957 9.83864 23.3868 9.86064 23.384C9.88265 23.3812 9.90501 23.3845 9.92523 23.3937C16.2006 26.2125 22.9968 26.2125 29.1986 23.3937C29.2189 23.384 29.2415 23.3802 29.2638 23.3828C29.2861 23.3853 29.3073 23.3941 29.3249 23.408C29.5166 23.5647 29.7164 23.7197 29.9193 23.8683C29.9353 23.88 29.9482 23.8955 29.9567 23.9133C29.9652 23.9312 29.9692 23.9509 29.9683 23.9707C29.9673 23.9905 29.9615 24.0098 29.9512 24.0267C29.941 24.0437 29.9268 24.0579 29.9097 24.068C28.9541 24.6177 27.9602 25.0827 26.9167 25.4695C26.9007 25.4753 26.8861 25.4844 26.8739 25.4964C26.8617 25.5083 26.8522 25.5226 26.846 25.5385C26.8398 25.5544 26.837 25.5714 26.8379 25.5885C26.8388 25.6055 26.8433 25.6221 26.8512 25.6373C27.4265 26.7351 28.0848 27.7802 28.8087 28.7725C28.8238 28.7929 28.8447 28.8081 28.8688 28.8161C28.8928 28.8241 28.9187 28.8245 28.943 28.8173C32.3856 27.7812 35.6283 26.1706 38.5341 24.0536C38.5483 24.0437 38.5602 24.0309 38.569 24.016C38.5778 24.0011 38.5834 23.9845 38.5853 23.9673C39.3843 15.8272 37.2461 8.75444 32.914 2.48711C32.9034 2.46674 32.8858 2.45087 32.8644 2.44237ZM13.2139 19.6783C11.3251 19.6783 9.76703 17.9701 9.76703 15.8751C9.76703 13.7785 11.2947 12.0719 13.2139 12.0719C15.1475 12.0719 16.6911 13.7929 16.6608 15.8751C16.6608 17.9717 15.1331 19.6783 13.2139 19.6783ZM25.9579 19.6783C24.0675 19.6783 22.511 17.9701 22.511 15.8751C22.511 13.7785 24.0371 12.0719 25.9579 12.0719C27.8915 12.0719 29.4351 13.7929 29.4048 15.8751C29.4048 17.9717 27.8931 19.6783 25.9579 19.6783Z" fill="white"/>
</svg>
