<svg width="39" height="29" viewBox="0 0 30 29" fill="none" xmlns="http://www.w3.org/2000/svg">
<path d="M15.1293 9.64319C12.4883 9.64319 10.333 11.7985 10.333 14.4395C10.333 17.0806 12.4883 19.2359 15.1293 19.2359C17.7704 19.2359 19.9257 17.0806 19.9257 14.4395C19.9257 11.7985 17.7704 9.64319 15.1293 9.64319ZM29.5147 14.4395C29.5147 12.4534 29.5327 10.4852 29.4212 8.50258C29.3096 6.19976 28.7843 4.15601 27.1004 2.47207C25.4128 0.784538 23.3727 0.262806 21.0699 0.151263C19.0837 0.0397201 17.1155 0.0577109 15.1329 0.0577109C13.1467 0.0577109 11.1785 0.0397201 9.19596 0.151263C6.89314 0.262806 4.84939 0.788136 3.16546 2.47207C1.47792 4.15961 0.956188 6.19976 0.844645 8.50258C0.733102 10.4888 0.751093 12.457 0.751093 14.4395C0.751093 16.4221 0.733102 18.3939 0.844645 20.3765C0.956188 22.6793 1.48152 24.7231 3.16546 26.407C4.85299 28.0945 6.89314 28.6163 9.19596 28.7278C11.1821 28.8393 13.1503 28.8214 15.1329 28.8214C17.1191 28.8214 19.0873 28.8393 21.0699 28.7278C23.3727 28.6163 25.4164 28.0909 27.1004 26.407C28.7879 24.7195 29.3096 22.6793 29.4212 20.3765C29.5363 18.3939 29.5147 16.4257 29.5147 14.4395ZM15.1293 21.8193C11.0454 21.8193 7.7495 18.5234 7.7495 14.4395C7.7495 10.3556 11.0454 7.05972 15.1293 7.05972C19.2132 7.05972 22.5091 10.3556 22.5091 14.4395C22.5091 18.5234 19.2132 21.8193 15.1293 21.8193ZM22.8114 8.48099C21.8579 8.48099 21.0879 7.71098 21.0879 6.75747C21.0879 5.80396 21.8579 5.03396 22.8114 5.03396C23.7649 5.03396 24.5349 5.80396 24.5349 6.75747C24.5352 6.98389 24.4908 7.20814 24.4043 7.41737C24.3178 7.62661 24.1908 7.81672 24.0307 7.97682C23.8706 8.13692 23.6805 8.26386 23.4713 8.35037C23.262 8.43689 23.0378 8.48127 22.8114 8.48099Z" fill="white"/>
</svg>
