<svg width="23" height="23" viewBox="0 0 23 23" fill="none" xmlns="http://www.w3.org/2000/svg">
<path fill-rule="evenodd" clip-rule="evenodd" d="M0.11377 2.14757C0.11377 1.6601 0.307416 1.1926 0.652108 0.84791C0.996799 0.503219 1.4643 0.309573 1.95177 0.309573H20.2738C20.5153 0.309178 20.7546 0.356436 20.9779 0.448639C21.2012 0.540843 21.4041 0.676183 21.575 0.846909C21.7459 1.01764 21.8815 1.2204 21.9739 1.44358C22.0664 1.66677 22.1139 1.906 22.1138 2.14757V20.4696C22.114 20.7112 22.0667 20.9505 21.9743 21.1738C21.882 21.3971 21.7466 21.6 21.5758 21.7709C21.405 21.9418 21.2022 22.0773 20.9789 22.1698C20.7557 22.2622 20.5164 22.3097 20.2748 22.3096H1.95177C1.71032 22.3096 1.47123 22.262 1.24817 22.1696C1.0251 22.0771 0.822441 21.9417 0.651754 21.7709C0.481067 21.6001 0.345701 21.3974 0.253392 21.1743C0.161083 20.9511 0.113638 20.712 0.11377 20.4706V2.14757ZM8.82177 8.69757H11.8008V10.1936C12.2308 9.33357 13.3308 8.55957 14.9838 8.55957C18.1528 8.55957 18.9038 10.2726 18.9038 13.4156V19.2376H15.6968V14.1316C15.6968 12.3416 15.2668 11.3316 14.1748 11.3316C12.6598 11.3316 12.0298 12.4206 12.0298 14.1316V19.2376H8.82177V8.69757ZM3.32177 19.1006H6.52977V8.55957H3.32177V19.0996V19.1006ZM6.98877 5.12157C6.99482 5.39625 6.94594 5.66936 6.84501 5.92489C6.74408 6.18041 6.59312 6.41321 6.401 6.6096C6.20888 6.806 5.97947 6.96205 5.72622 7.06858C5.47298 7.17511 5.20101 7.22999 4.92627 7.22999C4.65153 7.22999 4.37956 7.17511 4.12632 7.06858C3.87307 6.96205 3.64366 6.806 3.45154 6.6096C3.25942 6.41321 3.10846 6.18041 3.00753 5.92489C2.9066 5.66936 2.85772 5.39625 2.86377 5.12157C2.87564 4.58243 3.09815 4.06936 3.48366 3.69226C3.86916 3.31515 4.38699 3.10399 4.92627 3.10399C5.46555 3.10399 5.98338 3.31515 6.36888 3.69226C6.75438 4.06936 6.9769 4.58243 6.98877 5.12157Z" fill="white"/>
</svg>
