<svg width="39" height="29" viewBox="0 0 37 30" fill="none" xmlns="http://www.w3.org/2000/svg">
<path d="M36.397 3.55548C35.0626 4.14674 33.6292 4.54624 32.1223 4.72681C33.6772 3.79644 34.8404 2.33216 35.395 0.607179C33.9342 1.47487 32.3354 2.08564 30.6682 2.41291C29.547 1.2158 28.0619 0.422333 26.4436 0.155704C24.8252 -0.110925 23.1641 0.164201 21.7182 0.938368C20.2722 1.71253 19.1223 2.94243 18.447 4.4371C17.7716 5.93177 17.6086 7.60759 17.9833 9.20439C15.0233 9.05577 12.1276 8.28642 9.48423 6.94627C6.84082 5.60612 4.50874 3.72512 2.63934 1.42535C2.00015 2.52797 1.63261 3.80636 1.63261 5.16785C1.63189 6.39351 1.93372 7.60039 2.51131 8.68142C3.0889 9.76244 3.92439 10.6842 4.94365 11.3649C3.76158 11.3273 2.60558 11.0079 1.57188 10.4332V10.5291C1.57176 12.2482 2.16639 13.9143 3.25486 15.2448C4.34334 16.5753 5.85862 17.4883 7.54359 17.8288C6.44702 18.1255 5.29735 18.1692 4.18141 17.9566C4.65681 19.4357 5.58284 20.7292 6.82987 21.6558C8.0769 22.5825 9.5825 23.096 11.1359 23.1245C8.49892 25.1946 5.2423 26.3174 1.88988 26.3125C1.29604 26.3127 0.702697 26.278 0.112915 26.2086C3.51581 28.3966 7.47702 29.5578 11.5226 29.5532C25.2174 29.5532 32.704 18.2107 32.704 8.37343C32.704 8.05383 32.696 7.73104 32.6816 7.41144C34.1379 6.35832 35.3949 5.05423 36.3938 3.56027L36.397 3.55548Z" fill="white"/>
</svg>
